<?xml version="1.0" encoding="UTF-8"?>
<svg width="15px" height="17px" viewBox="0 0 15 17" version="1.1" xmlns="http://www.w3.org/2000/svg" xmlns:xlink="http://www.w3.org/1999/xlink">
    <title>测量</title>
    <g id="页面-1" stroke="none" stroke-width="1" fill="none" fill-rule="evenodd">
        <g id="1" transform="translate(-1340.000000, -216.000000)" fill="#4978F1" fill-rule="nonzero">
            <g id="测量" transform="translate(1340.000000, 216.000000)">
                <path d="M14.2236949,4.28843362 L10.268969,0.334821691 L0.226290334,10.3786874 L4.18101622,14.3322445 L14.2236949,4.28843362 L14.2236949,4.28843362 Z M9.7589734,1.83332164 L12.2307182,4.30439438 L11.7286646,4.80654292 L9.25695634,2.33563819 L9.7589734,1.83332164 L9.7589734,1.83332164 L9.7589734,1.83332164 Z M8.25267934,3.33995536 L9.73565133,4.82251646 L9.23350279,5.32483302 L7.7505308,3.84229018 L8.25267934,3.33995536 L8.25267934,3.33995536 L8.25267934,3.33995536 Z M6.74616066,4.84658544 L8.22920753,6.32912828 L7.72715394,6.83138822 L6.24418196,5.34882712 L6.74616249,4.84658544 L6.74616249,4.84658544 L6.74616066,4.84658544 Z M5.23975521,6.35312238 L6.72285868,7.83568348 L6.22071014,8.33800003 L4.73764502,6.85527092 L5.23975521,6.35312238 L5.23975521,6.35312238 L5.23975521,6.35312238 Z M3.7334995,7.85973419 L5.21648975,9.34229529 L4.71434121,9.8445187 L3.23135096,8.36197587 L3.7334995,7.85973419 L3.7334995,7.85973419 L3.7334995,7.85973419 Z M2.22714883,9.36628939 L4.69882056,11.8373402 L4.19667201,12.3395253 L1.72500029,9.86843793 L2.22714883,9.36628939 L2.22714883,9.36628939 Z M0.809544743,16.6651782 L14.2237059,16.6651782 L14.2237059,15.4986766 L0.809544743,15.4986766 L0.809544743,16.6651782 L0.809544743,16.6651782 Z" id="形状"></path>
            </g>
        </g>
    </g>
</svg>