<?xml version="1.0" encoding="UTF-8"?>
<svg width="17px" height="17px" viewBox="0 0 17 17" version="1.1" xmlns="http://www.w3.org/2000/svg" xmlns:xlink="http://www.w3.org/1999/xlink">
    <title>测面</title>
    <g id="页面-1" stroke="none" stroke-width="1" fill="none" fill-rule="evenodd">
        <g id="1" transform="translate(-1374.000000, -216.000000)" fill="#4978F1" fill-rule="nonzero">
            <g id="测面" transform="translate(1374.000000, 216.000000)">
                <path d="M14.4285236,4.32468621 L14.4285236,4.32468622 C14.1391796,4.61507587 13.6730747,4.62792896 13.368166,4.35392847 L13.368166,4.35392847 C13.0677193,4.0851517 13.0419563,3.62373926 13.3106129,3.32318697 L13.313593,3.32020687 L13.3135929,3.32020694 C13.5892574,3.01718664 14.0539756,2.9832094 14.3707843,3.24291042 L14.3707842,3.24291041 C14.6847401,3.52236453 14.7127097,4.00341707 14.4332564,4.31737289 C14.4310738,4.31982493 14.4288754,4.32226283 14.4266613,4.32468641 L14.4285236,4.32468621 Z M16.2588717,2.73089118 L13.160133,0.192031655 L13.160133,0.192031644 C12.8085677,-0.0979569548 12.2898652,-0.05455909 11.9913749,0.289816152 L8.8829428,3.91716193 L9.716439,4.60258451 L10.885197,5.57298012 L10.885197,5.57298013 C11.0417461,5.70019572 11.0655252,5.93023314 10.93831,6.0867824 C10.938238,6.08687102 10.938166,6.08695961 10.9380939,6.08704817 L10.9380939,6.08704817 C10.935317,6.09075332 10.9323321,6.09429789 10.9291536,6.09766476 L10.9291536,6.09766474 C10.7937343,6.2568658 10.5570812,6.28147405 10.3918046,6.1535416 L9.19976459,5.21555475 L8.35919075,4.52808308 L7.31615632,5.76426626 L7.98667834,6.31353632 L8.75666245,6.93116191 L8.75666245,6.93116191 C8.91521014,7.06124785 8.93830739,7.29522141 8.80825538,7.45379703 L8.80061888,7.46273733 L8.8006189,7.46273731 C8.66643786,7.62271481 8.42801394,7.64372303 8.26792667,7.50967399 L8.26327027,7.5057626 L7.49310105,6.88813701 L6.82369613,6.3448275 L5.78215062,7.57989358 L6.62253936,8.26661998 L7.77732881,9.21652631 L7.77732882,9.21652631 C7.93623388,9.35089278 7.95612581,9.58863605 7.82176,9.74754127 C7.82160192,9.74772822 7.82144367,9.747915 7.82128523,9.74810164 L7.82128523,9.74810164 C7.68595543,9.90672872 7.44998409,9.93130856 7.28486664,9.8039785 L6.07215221,8.85798363 L5.23865602,8.17293288 L3.17306833,10.5827094 L3.17306827,10.5827095 C2.891315,10.9246235 2.94008564,11.4302051 3.28200003,11.7119584 C3.28200946,11.7119661 3.2820189,11.7119739 3.28202833,11.7119817 C3.29022361,11.7188732 3.29860519,11.7253921 3.30698665,11.7319111 L6.61583029,14.468016 L6.61583037,14.468016 C6.96965092,14.7580387 7.48991546,14.7143129 7.79036221,14.3693 L16.4054586,4.3069965 L16.4054587,4.30699643 C16.801448,3.84543949 16.7482934,3.15026018 16.2867361,2.7542709 C16.2866997,2.7542397 16.2866634,2.7542085 16.286627,2.75417731 C16.2778109,2.74647872 16.2688705,2.73902845 16.2598062,2.73182647 L16.2588717,2.73089118 Z M2.70463781,11.0328923 L2.70463781,10.063242 L2.70463781,10.063242 C2.70313364,10.0361096 2.68020216,10.015165 2.65304488,10.0160877 C2.15648615,10.0160877 1.73703624,10.2986696 1.59138353,10.7332052 L0.0527207431,15.3100822 C-0.0551216845,15.6289529 0.00336281612,15.9433536 0.220351653,16.2134245 C0.437340977,16.4834953 0.749877696,16.6265404 1.11531246,16.6265404 L15.8848749,16.6265404 C16.2503097,16.6265404 16.561916,16.483123 16.7789054,16.2134245 C16.9958947,15.9437254 17.0554953,15.6289529 16.9476534,15.3100822 L15.4091773,10.7332052 C15.2638974,10.2986696 14.8446349,10.0160877 14.347516,10.0160877 L12.138703,10.0160877 L12.138703,10.0160877 C12.1115796,10.0151678 12.0887027,10.0361385 12.0872963,10.0632418 L12.0872963,10.4784069 L12.0872963,10.4784068 C12.0887027,10.5055104 12.1115798,10.5264809 12.138703,10.5255298 L13.3866205,10.5255298 C13.7405077,10.5255298 14.0496931,10.6840338 14.2230978,10.9408815 L14.2230978,10.9408815 C14.2772005,11.0224327 14.3160733,11.1131155 14.3378316,11.2085314 L15.1158238,14.4965107 L15.1158238,14.5007946 C15.3078538,15.0530441 14.8394189,15.6140486 14.1834257,15.6140486 L2.82180034,15.6140486 C2.16580544,15.6140486 1.69718546,15.0552799 1.88940222,14.5007946 L1.88940222,14.4965107 L2.68359873,11.1334684 L2.70463781,11.0328923 Z" id="形状"></path>
            </g>
        </g>
    </g>
</svg>